<!DOCTYPE svg PUBLIC "-//W3C//DTD SVG 1.1//EN" "http://www.w3.org/Graphics/SVG/1.1/DTD/svg11.dtd">
<!-- Uploaded to: SVG Repo, www.svgrepo.com, Transformed by: SVG Repo Mixer Tools -->
<svg width="800px" height="800px" viewBox="0 0 64 64" fill="none" xmlns="http://www.w3.org/2000/svg">
<g id="SVGRepo_bgCarrier" stroke-width="0"/>
<g id="SVGRepo_tracerCarrier" stroke-linecap="round" stroke-linejoin="round"/>
<g id="SVGRepo_iconCarrier"> <path fill-rule="evenodd" clip-rule="evenodd" d="M33.8742 20.2295L13.051 29.1579L20.8534 47.965L41.225 39.0366L33.8742 20.2295Z" fill="#2A2941"/> <path fill-rule="evenodd" clip-rule="evenodd" d="M36.8848 30.8585C37.5371 30.5334 38.2395 30.3583 38.9671 30.3333C39.6947 30.3083 40.4222 30.4083 41.0745 30.6834C41.7519 30.9335 42.354 31.3337 42.8809 31.8339C43.4077 32.3341 43.8091 32.9593 44.06 33.6095C44.336 34.2848 44.4614 34.9851 44.4363 35.7103C44.4112 36.4356 44.2356 37.1359 43.9346 37.7861C43.6335 38.4364 43.1819 39.0116 42.63 39.4868C42.078 39.962 41.4508 40.3121 40.7484 40.5372C40.0961 40.8623 39.3936 41.0624 38.666 41.0874C37.9385 41.1374 37.2109 41.0124 36.5335 40.7623C35.8562 40.5122 35.229 40.112 34.7021 39.6118C34.1752 39.1116 33.7738 38.4864 33.4979 37.8111C33.2219 37.1359 33.0965 36.4106 33.1215 35.6853C33.1466 34.9601 33.3223 34.2598 33.6484 33.5845C33.9745 32.9343 34.4261 32.3591 34.9781 31.8839C35.53 31.4087 36.1823 31.0586 36.8848 30.8585Z" fill="#2A2941"/> <path fill-rule="evenodd" clip-rule="evenodd" d="M35.6805 16.5781L14.8573 25.5065L22.6598 44.3137L43.0314 35.3853L35.6805 16.5781Z" fill="white"/> <path fill-rule="evenodd" clip-rule="evenodd" d="M44.0098 35.7605L36.0569 15.6028L13.904 25.1064L22.2584 45.2641L44.0098 35.7605ZM35.254 17.4785L42.1533 34.9852L23.0612 43.3383L15.8107 25.9067L35.254 17.4785Z" fill="#2A2941"/> <path fill-rule="evenodd" clip-rule="evenodd" d="M27.3262 37.6612L36.1321 33.9848C38.8166 32.4092 38.5908 29.7832 37.1608 28.7328C35.7056 27.6824 32.5445 28.2076 32.3187 31.4588C28.9067 26.4819 23.7386 28.7328 22.6598 31.859C21.8068 34.3349 23.1615 38.2114 27.3262 37.6612Z" fill="#4840FF"/> <path fill-rule="evenodd" clip-rule="evenodd" d="M16.463 30.7837L38.2395 21.4051L37.6625 20.0796L15.911 29.4582L16.463 30.7837Z" fill="#2A2941"/> <path fill-rule="evenodd" clip-rule="evenodd" d="M43.5331 34.0098L42.931 36.4357L49.2031 37.9863L49.8052 35.5604L43.5331 34.0098Z" fill="#F0EDFF"/> <path fill-rule="evenodd" clip-rule="evenodd" d="M47.5724 34.4351L46.619 38.1365L47.472 38.3616L48.4254 34.6601L47.5724 34.4351Z" fill="#2A2941"/> <path fill-rule="evenodd" clip-rule="evenodd" d="M50.8589 34.9101L42.9059 32.9343L41.8773 37.0609L49.8303 39.0366L50.8589 34.9101ZM43.5331 34.0097L42.931 36.4357L49.2031 37.9862L49.8052 35.5603L43.5331 34.0097Z" fill="#2A2941"/> <path fill-rule="evenodd" clip-rule="evenodd" d="M37.236 29.7833C38.1643 29.4582 39.1678 29.4082 40.1212 29.6332C41.0745 29.8583 41.9275 30.3835 42.6049 31.1088C43.2823 31.8341 43.7088 32.7344 43.8593 33.7098C44.0098 34.6852 43.8844 35.6605 43.483 36.5609C43.0816 37.4612 42.4042 38.2115 41.5763 38.7367C40.7484 39.2619 39.7699 39.512 38.7915 39.487C37.813 39.462 36.8597 39.1619 36.0569 38.5866C35.254 38.0364 34.6268 37.2361 34.2756 36.3358C34.0498 35.7105 33.9244 35.0353 33.9495 34.385C33.9745 33.7348 34.1251 33.0595 34.401 32.4593C34.677 31.8591 35.0784 31.3089 35.5551 30.8587C36.0318 30.3585 36.6088 30.0084 37.236 29.7833Z" fill="#F0EDFF"/> <path fill-rule="evenodd" clip-rule="evenodd" d="M36.96 29.1079H36.8848H36.96C35.9314 29.5581 35.0533 30.3083 34.4512 31.2337C33.8491 32.1841 33.523 33.2845 33.548 34.4099C33.5731 35.5353 33.8993 36.6357 34.5516 37.5611C35.1788 38.4865 36.0819 39.2117 37.1106 39.6369C38.1643 40.0621 39.2932 40.1621 40.3971 39.962C41.501 39.7369 42.5296 39.2117 43.3074 38.4114C44.1102 37.6111 44.6621 36.6107 44.8879 35.5103C45.1137 34.4099 45.0133 33.2595 44.6119 32.2341C44.0098 30.8085 42.8808 29.6831 41.4508 29.1079C39.9957 28.5077 38.3901 28.5077 36.96 29.1079ZM37.4869 30.4584H37.5371H37.4869C38.2897 30.1833 39.1427 30.1583 39.9455 30.3584C40.7484 30.5584 41.501 31.0086 42.0529 31.6338C42.63 32.2591 42.9812 33.0344 43.1066 33.8597C43.2321 34.685 43.1066 35.5353 42.7805 36.2856C42.4293 37.0359 41.8522 37.6861 41.1498 38.1363C40.4473 38.5865 39.6194 38.8116 38.7664 38.7866C37.9385 38.7616 37.1106 38.4865 36.4332 38.0113C35.7558 37.5361 35.2039 36.8608 34.9028 36.0855C34.7021 35.5603 34.6017 34.9851 34.6268 34.4099C34.6519 33.8347 34.7774 33.2845 35.0282 32.7593C35.2791 32.2341 35.6053 31.7589 36.0318 31.3838C36.4583 30.9586 36.96 30.6585 37.4869 30.4584Z" fill="#2A2941"/> <path fill-rule="evenodd" clip-rule="evenodd" d="M37.813 31.5089C38.4152 31.2838 39.0675 31.2338 39.6947 31.3839C40.3219 31.5339 40.8989 31.8591 41.3505 32.3092C41.8021 32.7844 42.1031 33.3596 42.2035 33.9849C42.3038 34.6101 42.2286 35.2603 41.9777 35.8606C41.7268 36.4608 41.3003 36.936 40.7484 37.2861C40.1964 37.6362 39.5692 37.8113 38.9169 37.7863C38.2646 37.7863 37.6374 37.5612 37.1106 37.2111C36.5837 36.8359 36.1823 36.3358 35.9314 35.7355C35.6304 34.9352 35.6304 34.0349 35.9816 33.2346C36.3579 32.4343 37.0102 31.809 37.813 31.5089Z" fill="#F0EDFF"/> <path fill-rule="evenodd" clip-rule="evenodd" d="M37.7127 31.2338C37.0604 31.5089 36.5085 31.9591 36.1321 32.5343C35.7307 33.1095 35.53 33.8098 35.53 34.485C35.53 35.1853 35.7307 35.8606 36.1321 36.4608C36.5085 37.036 37.0604 37.5112 37.7127 37.7613C38.365 38.0364 39.0675 38.1114 39.7699 37.9864C40.4473 37.8613 41.0996 37.5362 41.6014 37.036C42.1031 36.5358 42.4544 35.9106 42.5798 35.2353C42.7303 34.5601 42.6551 33.8348 42.4042 33.1845C42.053 32.3092 41.3505 31.6089 40.4724 31.2338C39.5692 30.8837 38.5908 30.8837 37.7127 31.2338ZM37.9134 31.759C38.4653 31.5589 39.0675 31.5089 39.6194 31.6339C40.1964 31.759 40.7233 32.0591 41.1247 32.4843C41.5261 32.9094 41.8021 33.4346 41.9024 34.0098C42.0028 34.5851 41.9275 35.1853 41.7017 35.7105C41.4759 36.2357 41.0745 36.7109 40.5978 37.011C40.0961 37.3361 39.5191 37.4862 38.942 37.4862C38.365 37.4862 37.788 37.2861 37.3113 36.961C36.8346 36.6358 36.4583 36.1607 36.2325 35.6355C35.9565 34.8852 35.9816 34.0849 36.3078 33.3596C36.6088 32.6343 37.1859 32.0591 37.9134 31.759Z" fill="#2A2941"/> <path fill-rule="evenodd" clip-rule="evenodd" d="M17.5167 28.0574L19.0722 27.4072L18.5202 26.0566L16.9648 26.7319L17.5167 28.0574Z" fill="#2A2941"/> <path fill-rule="evenodd" clip-rule="evenodd" d="M20.2262 26.9321L21.7817 26.3319L21.2047 25.0063L19.6492 25.6816L20.2011 27.0071L20.2262 26.9321Z" fill="#2A2941"/> <path fill-rule="evenodd" clip-rule="evenodd" d="M22.9106 25.8317L24.4661 25.1815L23.8891 23.856L22.3336 24.5062L22.9106 25.8317Z" fill="#2A2941"/> </g>
</svg>